<svg xmlns="http://www.w3.org/2000/svg" viewBox="0 0 54.26 52.7"><defs><style>.a{fill:#d5b46e;}</style></defs><title>Vector Smart Object</title><path class="a" d="M43.58,19.64c-3.14-1.5-3.83.61-4.8,2.31-1.79,3.13-3.57,6.28-5.43,9.38-.61,1-.4,1.24.7,1.24q7.59,0,15.18,0c.8,0,2.06-.24,2.06.81,0,.77-1.22.3-1.89.35-1.13.09-2.28,0-3.42,0-.78,0-1,.25-.6,1C46.58,36.8,47.75,38.92,49,41q3.3,5.71,6.63,11.43a4.24,4.24,0,0,1,.41.79c.14.41.33,1-.16,1.19s-.6-.35-.79-.67c-1.55-2.65-3.14-5.28-4.62-8-.5-.9-.73-.73-1.15,0-1.52,2.6-3.09,5.19-4.57,7.82a1.66,1.66,0,0,1-1.61,1c-12.75,0-25.49,0-38.24,0-2.61,0-3.7-1.85-2.43-4.11,3.48-6.16,7-12.28,10.56-18.42q3.71-6.43,7.43-12.86C23.36,14.1,26.28,9,29.24,3.93c1.55-2.65,3.64-2.7,5.2-.05C37.44,8.93,40.34,14,43.58,19.64Zm-20.89,34c2.18,0,4.36,0,6.54,0,1.18,0,1.39-.33.8-1.34q-6.09-10.51-12.15-21c-.57-1-1-1.25-1.62-.06a24.79,24.79,0,0,0-1.67,21.47,1.26,1.26,0,0,0,1.41,1C18.22,53.59,20.46,53.61,22.69,53.61ZM36.87,18.85A24.59,24.59,0,0,0,18.53,28a1.46,1.46,0,0,0-.16,2c1.26,2.08,2.4,4.24,3.61,6.36C23,38,24,39.77,25,41.54c.48.87.73.86,1.22,0,1.76-3.15,3.59-6.26,5.4-9.39,2.35-4.07,4.68-8.16,7-12.21.51-.88.31-1.16-.65-1.08C37.8,18.87,37.55,18.85,36.87,18.85Z" transform="translate(-1.9 -1.92)"/></svg>